<svg t="1703297086241" class="icon" viewBox="0 0 1024 1024" version="1.1" xmlns="http://www.w3.org/2000/svg" p-id="15315" width="20" height="20" xmlns:xlink="http://www.w3.org/1999/xlink"><path d="M511.588175 1022.287674l-32.382474-36.392352c-36.016651-40.47448-351.879433-401.175644-351.879433-600.202865C127.326268 173.804727 299.70767 1.416101 511.588175 1.416101c211.88773 0 384.269131 172.381401 384.269131 384.276356 0 199.019996-315.870006 559.728385-351.886658 600.202865l-32.382473 36.392352z m0-934.164284c-164.072645 0-297.561843 133.489198-297.561843 297.576292 0 126.372568 191.896141 379.890778 297.561843 505.107345 105.672927-125.216567 297.569068-378.734777 297.569068-505.107345 0-164.087095-133.481973-297.576293-297.569068-297.576292z" fill="#969696" p-id="15316"></path><path d="M511.588175 553.551005c-85.341763 0-154.766838-69.432301-154.766839-154.774063 0-85.334538 69.425076-154.759613 154.766839-154.759613s154.766838 69.425076 154.766838 154.759613c0 85.341763-69.425076 154.774063-154.766838 154.774063z m0-222.833613c-37.533902 0-68.066775 30.532872-68.066775 68.05955 0 37.533902 30.540097 68.066775 68.066775 68.066775s68.066775-30.540097 68.066775-68.066775c0-37.526677-30.532872-68.05955-68.066775-68.05955z" fill="#969696" p-id="15317"></path></svg>