<svg class="icon" width="20" height="20" p-id="1439" t="1669021268393" version="1.1" viewBox="0 0 1137.8 1137.8" xmlns="http://www.w3.org/2000/svg"><path d="m179.61 1137.8h778.57c20.651 0 37.386-17.909 37.386-40.009v-512.88c0-22.1-16.735-40.009-37.386-40.009h-666.3v-168.29c0-163.47 124.27-296.45 277.01-296.45 112.63 0 213.27 72.016 256.24 183.53 7.8332 20.449 29.789 30.229 48.898 21.719 19.108-8.3828 28.247-31.88 20.295-52.329-54.595-141.62-182.3-233.07-325.43-233.07-194.05 0-351.9 168.93-351.9 376.59v168.29h-37.386c-20.651 0-37.386 17.909-37.386 40.009v512.75c-0.11868 22.1 16.616 40.136 37.386 40.136zm37.386-512.88h703.8v432.6h-703.8zm396.76 120.28v216.3c0 22.1-16.735 40.009-37.386 40.009-20.651 0-37.386-17.909-37.386-40.009v-96.148h-22.432c-20.651 0-37.386-17.909-37.386-40.009s16.735-40.009 37.386-40.009h22.432v-40.009c0-22.1 16.735-40.009 37.386-40.009 20.651-0.25403 37.386 17.655 37.386 39.882z" fill="#969696" stroke-width="1.0791" p-id="1440"/></svg>