<svg class="icon" width="20" height="20" p-id="9368" t="1703295173842" version="1.1" viewBox="0 0 1024 1024" xmlns="http://www.w3.org/2000/svg"><path d="m652.13 600.27c85.898-48.986 144.58-140.43 144.58-246.41 0-157.25-127.46-284.71-284.71-284.71s-284.71 127.46-284.71 284.71c0 105.99 58.585 197.43 144.58 246.41-148.44 53.934-257 190.7-269.47 354.58h63.236c16.032-177.04 165.17-316.28 346.36-316.28s330.33 139.24 346.36 316.28h63.236c-12.469-163.88-121.03-300.64-269.47-354.58zm-361.6-246.41c0-122.12 99.357-221.38 221.47-221.38s221.47 99.258 221.47 221.38-99.357 221.38-221.47 221.38-221.47-99.258-221.47-221.38z" fill="#969696" stroke-width=".98961" p-id="9369"/></svg>