<svg t="1668993928560" class="icon" viewBox="0 0 1024 1024" version="1.1" xmlns="http://www.w3.org/2000/svg" p-id="2727" width="20" height="20"><path d="M806.6 518.6l-45.3-45.3-183.4 183.5c-16.2-8.6-34-12.9-51.8-12.9-28.2 0-56.3 10.7-77.8 32.2-43 43-43 112.7 0 155.6 21.5 21.5 49.7 32.2 77.8 32.2s56.3-10.7 77.8-32.2c35.1-35.1 41.6-88.1 19.3-129.6l45.9-45.9 38.5 38.5 45.3-45.3-38.5-38.5 18.7-18.7 38.5 38.5 45.3-45.3-38.5-38.5 28.2-28.3z m-247.9 268c-8.7 8.7-20.3 13.5-32.6 13.5s-23.9-4.8-32.6-13.5S480 766.3 480 754s4.8-23.9 13.5-32.6c8.7-8.7 20.3-13.5 32.6-13.5s23.9 4.8 32.6 13.5 13.5 20.3 13.5 32.6-4.8 23.9-13.5 32.6z" p-id="2728" fill="#969696"></path><path d="M816 64H208c-61.8 0-112 50.2-112 112v672c0 61.8 50.2 112 112 112h608c61.8 0 112-50.2 112-112V176c0-61.8-50.2-112-112-112z m48 784c0 26.5-21.5 48-48 48H208c-26.5 0-48-21.5-48-48V176c0-26.5 21.5-48 48-48h608c26.5 0 48 21.5 48 48v672z" p-id="2729" fill="#969696"></path><path d="M256 256h352c17.7 0 32-14.3 32-32s-14.3-32-32-32H256c-17.7 0-32 14.3-32 32s14.3 32 32 32zM256 416h256c17.7 0 32-14.3 32-32s-14.3-32-32-32H256c-17.7 0-32 14.3-32 32s14.3 32 32 32zM512 544c0-17.7-14.3-32-32-32H256c-17.7 0-32 14.3-32 32s14.3 32 32 32h224c17.7 0 32-14.3 32-32z" p-id="2730" fill="#969696"></path></svg>