<svg class="icon" width="20" height="20" p-id="5343" t="1703420169461" version="1.1" viewBox="0 0 1024 1024" xmlns="http://www.w3.org/2000/svg"><path d="m683.83 921.6h-141.86v-39.961c0-55.945-43.957-99.902-99.902-99.902-55.945 0-99.902 43.957-99.902 99.902v39.961h-141.86c-53.947 0-97.904-43.957-97.904-97.904v-141.86h39.961c55.945 0 99.902-43.957 99.902-99.902 0-55.945-43.957-99.902-99.902-99.902h-39.961v-141.86c0-53.947 43.957-97.904 97.904-97.904h101.9c0-77.924 61.94-139.86 139.86-139.86 77.924 0 139.86 61.94 139.86 139.86h101.9c53.947 0 97.904 43.957 97.904 97.904v101.9c77.924 0 139.86 61.94 139.86 139.86 0 77.924-61.94 139.86-139.86 139.86v101.9c0 53.947-43.957 97.904-97.904 97.904zm-101.9-39.961h101.9c31.969 0 57.943-25.975 57.943-57.943v-141.86h39.961c55.945 0 99.902-43.957 99.902-99.902 0-55.945-43.957-99.902-99.902-99.902h-39.961v-141.86c0-31.969-25.975-57.943-57.943-57.943h-141.86v-39.961c0-55.945-43.957-99.902-99.902-99.902-55.945 0-99.902 43.957-99.902 99.902v39.961h-141.86c-31.969 0-57.943 25.975-57.943 57.943v101.9c77.924 0 139.86 61.94 139.86 139.86 0 77.924-61.94 139.86-139.86 139.86v101.9c0 31.969 25.975 57.943 57.943 57.943h101.9c0-77.924 61.94-139.86 139.86-139.86 77.924 0 139.86 61.94 139.86 139.86z" fill="#969696" stroke-width=".93658" p-id="5344"/></svg>