<svg t="1703300372501" class="icon" viewBox="0 0 1024 1024" version="1.1" xmlns="http://www.w3.org/2000/svg" p-id="24653" width="20" height="20" xmlns:xlink="http://www.w3.org/1999/xlink"><path d="M565.248 844.8h-373.76a25.6 25.6 0 0 1-25.6-25.6V195.328a25.6 25.6 0 0 1 25.6-25.6H814.08a25.6 25.6 0 0 1 25.6 25.6v370.944a25.6 25.6 0 1 0 51.2 0V195.328a76.8 76.8 0 0 0-76.8-76.8H191.488a76.8 76.8 0 0 0-76.8 76.8V819.2a76.8 76.8 0 0 0 76.8 76.8h373.76a25.6 25.6 0 0 0 0-51.2z" p-id="24654" fill="#969696"></path><path d="M691.2 640h153.6q51.2 0 51.2 51.2v153.6q0 51.2-51.2 51.2H691.2q-51.2 0-51.2-51.2V691.2q0-51.2 51.2-51.2z" p-id="24655" fill="#969696"></path></svg>