<svg class="icon" width="20" height="20" p-id="17587" t="1703297507890" version="1.1" viewBox="0 0 1024 1024" xmlns="http://www.w3.org/2000/svg"><path d="m895.8 592.1a32.2 32.1 0 1 0 64.4 0 32.2 32.1 0 1 0-64.4 0z" fill="#969696" p-id="17588"/><path d="m892.16 672.57c-16.272 0-29.437 13.164-29.437 29.345v73.775c0 32.271-26.237 58.508-58.508 58.508h-584.44c-32.271 0-58.508-26.237-58.508-58.508v-526.3c0-32.271 26.237-58.508 58.508-58.508h203.41l75.603 131c6.0336 10.422 17.552 15.724 28.797 14.444h276.54c32.271 0 58.508 26.237 58.508 58.508v73.135c0 16.181 13.164 29.345 29.437 29.345s29.437-13.164 29.437-29.345c0-0.73134 0-1.4627-0.0914-2.194v-70.849c0-50.463-31.905-93.43-76.7-109.88v-0.91419c0-62.347-51.011-113.36-113.36-113.36h-252.22l-13.53-23.495c-6.765-11.793-16.455-14.81-24.957-14.627l-0.0914-0.0914h-221.14c-64.633-2e-5 -117.02 52.383-117.02 117.02v524.83c0 64.633 52.383 117.02 117.02 117.02h585.08c64.633 0 117.02-52.383 117.02-117.02v-70.301c0.0914-0.73135 0.0914-1.4627 0.0914-2.194 0-16.181-13.164-29.345-29.437-29.345zm-165.38-443.47c28.888 0 53.023 21.209 57.685 48.817h-243.45l-28.157-48.817z" fill="#969696" stroke-width=".91418" p-id="17589"/></svg>