<svg class="icon" width="20" height="20" p-id="23534" t="1703300217927" version="1.1" viewBox="0 0 1024 1024" xmlns="http://www.w3.org/2000/svg"><path d="m863.09 102.4h-702.17c-32.271 0-58.514 26.244-58.514 58.514v702.17c0 32.271 26.244 58.514 58.514 58.514h541.26a29.257 29.257 0 1 0 0-58.514h-541.26v-702.17h702.17v541.26a29.257 29.257 0 1 0 58.514 0v-541.26c0-32.271-26.244-58.514-58.514-58.514z" fill="#969696" stroke-width=".91429" p-id="23535"/><path d="m767.77 726.4a189.03 189.03 0 0 0 36.805-112c0-104.86-85.314-190.17-190.17-190.17s-190.17 85.314-190.17 190.17 85.314 190.17 190.17 190.17a189.03 189.03 0 0 0 112-36.805l101.38 101.38a29.169 29.169 0 0 0 41.37 0 29.228 29.228 0 0 0 0-41.37zm-285.02-112c0-72.587 59.07-131.66 131.66-131.66s131.66 59.07 131.66 131.66-59.07 131.66-131.66 131.66-131.66-59.07-131.66-131.66zm292.57-329.14a29.257 29.257 0 0 0-29.257-29.257h-468.11a29.257 29.257 0 0 0 0 58.514h468.11a29.257 29.257 0 0 0 29.257-29.257zm-497.37 145.06a29.257 29.257 0 0 0 0 58.514h87.771a29.257 29.257 0 0 0 0-58.514z" fill="#969696" stroke-width=".91429" p-id="23536"/></svg>