<svg class="icon" width="20" height="20" p-id="6720" t="1703287281308" version="1.1" viewBox="0 0 1024 1024" xmlns="http://www.w3.org/2000/svg"><path d="m512 102.4c-226.22 0-409.6 183.33-409.6 409.6s183.38 409.6 409.6 409.6c226.27 0 409.6-183.33 409.6-409.6s-183.33-409.6-409.6-409.6zm0 750.74v0.23406c-195.73-0.0586-341.14-153.3-341.14-341.38s153.07-341.14 341.14-341.14 341.14 153.02 341.14 341.14-153.02 341.14-341.14 341.14zm-60.386-507.26a24.576 24.576 0 0 0-27.736-0.76069 32.417 32.417 0 0 0-14.102 27.385v313.22c0 11.352 5.3833 21.826 14.102 27.385a24.576 24.576 0 0 0 27.794-0.8192l218.43-156.64c7.8994-5.7344 12.756-15.799 12.756-26.566s-4.8566-20.831-12.814-26.507z" fill="#969696" stroke-width=".91424" p-id="6721"/></svg>