<svg class="icon" width="20" height="20" data-spm-anchor-id="a313x.search_index.0.i35.35063a81lATe34" p-id="18972" t="1704264837155" version="1.1" viewBox="0 0 1024 1024" xmlns="http://www.w3.org/2000/svg">
 <path d="M872 62a90 90 0 0 1 90 90v720a90 90 0 0 1-90 90H152a90 90 0 0 1-90-90V152a90 90 0 0 1 90-90h720z m0 45H152a45 45 0 0 0-44.685 39.735L107 152v720a45 45 0 0 0 39.735 44.685L152 917h720a45 45 0 0 0 44.685-39.735L917 872V152a45 45 0 0 0-39.735-44.685L872 107z" fill="#cbcbcb" p-id="18973"/>
 <path d="m736.84 537.36h-32.895l-0.09 143.24-143.37-144.18-23.31 23.175 143.55 144.4h-143.73v32.85h199.84zm-276.75-54.36 23.265-23.355-139.59-139.59h142.42v-32.895h-199.35v199.53h32.895v-144.18l140.31 140.49z" fill="#efefef" p-id="18974"/>
</svg>