<svg class="icon" width="20" height="20" p-id="2065" t="1653186564645" version="1.1" viewBox="0 0 1911 1706.7" xmlns="http://www.w3.org/2000/svg">
 <path d="m1399.1 375.58c282.71 0 511.88 229.22 511.88 512 0 282.78-229.17 512-511.88 512h-887.25c-282.71 0-511.87-229.22-511.87-512 0-282.78 229.17-512 511.87-512zm0 102.4c-226.16 0-409.5 183.38-409.5 409.6 0 226.22 183.34 409.6 409.5 409.6 226.16 0 409.5-183.38 409.5-409.6 0-226.22-183.34-409.6-409.5-409.6z" fill="#3ad6a2" stroke-width=".99988" p-id="2066"/>
 <path d="m1399.1 887.58m-409.5 0a409.5 409.6 0 1 0 819 0 409.5 409.6 0 1 0-819 0z" fill="#f5f5dc" stroke-width=".99988" p-id="2067"/>
</svg>