<svg t="1703875442725" class="icon" viewBox="0 0 1024 1024" version="1.1" xmlns="http://www.w3.org/2000/svg" p-id="8301" width="20" height="20" xmlns:xlink="http://www.w3.org/1999/xlink"><path d="M512 981.333333c-220.16-53.76-384-275.2-384-512V213.333333l384-170.666666 384 170.666666v256c0 236.8-163.84 458.24-384 512z m298.666667-502.613333V268.8l-298.666667-133.12L213.333333 268.8v209.92C213.333333 663.04 352 853.333333 512 896c160-42.666667 298.666667-232.96 298.666667-417.28z m-172.330667-116.352A128 128 0 0 1 554.666667 504.746667V597.333333h85.333333v85.333334h-85.333333v85.333333h-85.333334v-263.253333A128 128 0 0 1 512 256a128 128 0 0 1 126.336 106.368zM512 341.333333a42.666667 42.666667 0 1 0 0 85.333334 42.666667 42.666667 0 0 0 0-85.333334z" fill="#969696" p-id="8302"></path></svg>