<svg class="icon" width="30" height="30" p-id="4223" t="1703294126625" version="1.1" viewBox="0 0 1024 1024" xmlns="http://www.w3.org/2000/svg">
 <path d="m511.1 0c-268.84 0-489.3 207.36-510.17 470.91l274.43 113.41a144.51 144.51 0 0 1 81.579-25.173c2.688 0 5.3333 0.17067 8.0213 0.256l122.07-176.73v-2.5173a193.19 193.19 0 0 1 193.02-193.02c106.41 0 193.02 86.656 193.02 193.15s-86.613 193.07-193.02 193.07h-4.48l-173.91 124.2c0 2.2187 0.17067 4.48 0.17067 6.784a144.73 144.73 0 0 1-144.64 144.9 145.58 145.58 0 0 1-142.12-116.35l-196.48-81.365c60.843 214.91 258.13 372.48 492.5 372.48 282.75 0 511.96-229.25 511.96-512s-229.25-512-511.96-512zm-189.4 776.96-62.848-26.027c11.179 23.168 30.464 42.624 56.064 53.333a108.84 108.84 0 0 0 142.38-141.82 108.67 108.67 0 0 0-138.88-60.288l64.981 26.88a80.128 80.128 0 0 1-61.653 147.93h-0.042666zm487.04-396.93a128.81 128.81 0 0 0-128.64-128.64 128.64 128.64 0 1 0 128.64 128.64zm-224.98-0.21333a96.597 96.597 0 1 1 193.32 0 96.725 96.725 0 0 1-96.683 96.64 96.597 96.597 0 0 1-96.64-96.64z" fill="#878787" p-id="4224"/>
</svg>