<svg class="icon" width="20" height="20" p-id="56043" t="1703311189316" version="1.1" viewBox="0 0 1024 1024" xmlns="http://www.w3.org/2000/svg"><path d="m513.22 921.6c226.07 0 408.38-182.31 408.38-408.38 0-150.71-80.219-281.98-199.33-352.47-38.893-21.878-60.771 24.309-26.74 46.186 104.53 60.771 175.02 175.02 175.02 306.29 0 196.9-160.44 357.34-357.34 357.34-196.9 0-357.34-160.44-357.34-357.34 0-131.27 70.496-245.52 175.02-306.29 31.601-21.878 12.154-68.063-26.74-46.186-121.54 70.496-201.76 201.76-201.76 352.47 0 226.07 184.75 408.38 410.81 408.38zm0-819.2c17.016 0 34.031 14.585 34.031 31.6v459.43c0 17.016-17.017 31.6-34.031 31.6-19.448 0-34.031-14.585-34.031-31.601v-459.43c0-17.016 14.585-31.6 34.031-31.6z" fill="#969696" stroke-width=".91022" p-id="56044"/></svg>