<svg class="icon" width="20" height="20" p-id="14940" t="1655894747479" version="1.1" viewBox="0 0 1024 1024" xmlns="http://www.w3.org/2000/svg"><path d="m764.17 331.27c0-139.9-113.35-253.24-253.24-253.24-139.9 0-253.24 113.35-253.24 253.24 0 84.55 41.458 159.5 105.18 205.45-0.40845 0.20422-0.7148 0.30633-0.91902 0.40846-45.645 19.3-86.593 46.972-121.82 82.304-35.229 35.229-62.8 76.279-82.1 122.03-18.891 44.726-29 92.209-30.021 141.02-0.10211 4.5951 3.574 8.3733 8.1691 8.3733h61.166c4.3909 0 8.067-3.574 8.1691-7.9649 2.0423-78.832 33.595-152.66 89.452-208.62 57.694-57.899 134.28-89.758 215.97-89.758 139.9 0 253.24-113.35 253.24-253.24zm-253.24 175.64c-97.008 0-175.64-78.628-175.64-175.64s78.628-175.64 175.64-175.64 175.64 78.628 175.64 175.64-78.628 175.64-175.64 175.64zm107.22 225.67h269.58c4.493 0 8.1691-3.6761 8.1691-8.1691v-57.184c0-4.493-3.6761-8.1691-8.1691-8.1691h-180.23l48.198-61.37c1.1233-1.4296 1.7359-3.2676 1.7359-5.0036 0-4.493-3.6761-8.1691-8.1691-8.1691h-74.135c-5.0036 0-9.7008 2.3486-12.866 6.2289l-69.948 88.941c-4.493 5.7184-6.9437 12.866-6.9437 20.219 0.10211 18.074 14.704 32.676 32.779 32.676zm245.07 65.353h-269.58c-4.493 0-8.1691 3.6761-8.1691 8.1691v57.184c0 4.493 3.6761 8.1691 8.1691 8.1691h180.23l-48.198 61.37c-1.1233 1.4296-1.7359 3.2677-1.7359 5.0036 0 4.4931 3.6761 8.1691 8.1691 8.1691h74.135c5.0036 0 9.7008-2.3486 12.866-6.2289l69.948-88.941c4.493-5.7184 6.9437-12.866 6.9437-20.219-0.10212-18.074-14.704-32.676-32.779-32.676z" fill="#969696" stroke-width="1.0211" p-id="14941"/></svg>