<svg t="1703310441786" class="icon" viewBox="0 0 1024 1024" version="1.1" xmlns="http://www.w3.org/2000/svg" p-id="51267" width="20" height="20" xmlns:xlink="http://www.w3.org/1999/xlink"><path d="M150.613333 105.386667l768 768a32 32 0 0 1-45.226666 45.226666l-159.573334-159.488A413.568 413.568 0 0 1 512 810.666667c-161.834667 0-273.536-87.68-341.973333-168.021334l-12.288-14.933333-11.306667-14.677333a620.032 620.032 0 0 1-5.290667-7.168l-9.813333-13.909334a624.554667 624.554667 0 0 1-4.565333-6.698666l-12.16-19.029334a604.245333 604.245333 0 0 1-3.584-5.888 93.269333 93.269333 0 0 1 0-96.682666c26.368-43.989333 73.6-109.994667 144.213333-163.157334L105.386667 150.613333a32 32 0 1 1 45.226666-45.226666z m150.4 240.896c-64.896 46.592-109.269333 107.221333-135.125333 150.272a29.312 29.312 0 0 0 0 30.890666l3.84 6.229334 8.32 13.098666 9.386667 13.824C243.413333 640.597333 348.8 746.666667 512 746.666667c58.794667 0 110.08-13.781333 154.24-35.114667l-89.173333-89.258667a128 128 0 0 1-175.317334-175.317333l-100.693333-100.693333zM512 213.333333c161.834667 0 273.536 87.68 341.930667 168.021334l12.373333 14.933333 11.264 14.677333c1.834667 2.389333 3.584 4.778667 5.290667 7.168l9.813333 13.909334 8.874667 13.226666 7.850666 12.501334c1.28 2.005333 2.432 3.968 3.584 5.888a93.269333 93.269333 0 0 1 0 96.682666 605.269333 605.269333 0 0 1-95.573333 121.386667l-45.226667-45.226667c38.826667-37.546667 67.242667-77.909333 85.930667-109.056a29.312 29.312 0 0 0 0-30.890666l-3.84-6.229334-8.32-13.098666C792.746667 396.288 684.8 277.333333 512 277.333333a354.986667 354.986667 0 0 0-88.064 10.88L372.608 236.885333A415.573333 415.573333 0 0 1 512 213.333333z m-61.866667 282.112a64.085333 64.085333 0 0 0 78.421334 78.378667l-78.378667-78.378667z" fill="#969696" p-id="51268"></path></svg>