<svg class="icon" width="20" height="20" p-id="1689" t="1669021344076" version="1.1" viewBox="0 0 1024 1024" xmlns="http://www.w3.org/2000/svg"><path d="m161.64 1024h700.72c18.581 0 33.637-16.114 33.637-36v-461.6c0-19.886-15.057-36-33.637-36h-33.637v-151.43c0-186.86-142.02-338.97-316.73-338.97-174.59 0-316.73 152-316.73 338.97v151.43h-33.637c-18.581 0-33.637 16.114-33.637 36v461.49c-0.10679 20 15.057 36.114 33.637 36.114zm101.02-685.03c0-147.09 111.8-266.86 249.34-266.86 137.54 0 249.34 119.66 249.34 266.86v151.43h-498.69zm-67.381 223.54h633.45v389.37h-633.45zm357.2 108.11v194.74c0 19.886-15.057 36-33.637 36-18.581 0-33.637-16.114-33.637-36v-86.514h-20.182c-18.581 0-33.637-16.114-33.637-36 0-19.886 15.057-36 33.637-36h20.182v-36.229c0-19.886 15.057-36 33.637-36 18.474 0 33.637 16.114 33.637 36z" fill="#969696" stroke-width=".97095" p-id="1690"/></svg>