<svg class="icon" width="20" height="20" p-id="10604" t="1703803102354" version="1.1" viewBox="0 0 1024 1024" xmlns="http://www.w3.org/2000/svg">
 <g fill="#969696" stroke-width="1.0105">
  <path d="m479.66 555.12v-215.58a32.552 32.552 0 0 1 32.337-32.336 32.552 32.552 0 0 1 32.337 32.336v215.58a32.552 32.552 0 0 1-32.337 32.336 32.552 32.552 0 0 1-32.337-32.336z" p-id="10605"/>
  <path d="m102.4 565.89a409.6 409.59 0 0 1 819.2 0 32.337 32.336 0 0 1-64.674 0 344.93 344.92 0 1 0-344.93 344.92 32.337 32.336 0 0 1 0 64.673 409.99 409.98 0 0 1-409.6-409.59zm280.25-452.71a32.552 32.552 0 0 1-32.337-32.336 32.552 32.552 0 0 1 32.337-32.336h258.69a32.552 32.552 0 0 1 32.337 32.336 32.552 32.552 0 0 1-32.337 32.336z" p-id="10606"/>
  <path d="m690.93 944.01a79.462 79.461 0 0 1-41.348-10.779 100.07 100.07 0 0 1-44.884-91.016v-99.553a100.07 100.07 0 0 1 44.84-91.016 81.92 81.919 0 0 1 41.391-10.693 122.75 122.75 0 0 1 59.5 17.246l86.232 50.014a100.16 100.16 0 0 1 56.482 83.988 100.2 100.2 0 0 1-56.482 84.075l-86.232 50.014a117.75 117.75 0 0 1-59.5 17.72zm0.43116-238.86a21.558 21.558 0 0 0-9.4855 2.1558 40.27 40.27 0 0 0-12.504 34.923v99.553a40.27 40.27 0 0 0 12.504 34.923 19.618 19.617 0 0 0 9.6148 2.1558 55.404 55.403 0 0 0 26.602-8.623l86.232-50.014c14.918-8.623 24.188-19.316 24.188-28.068s-9.2699-19.488-24.188-28.025l-86.232-50.014a54.585 54.584 0 0 0-26.732-8.968z" p-id="10607"/>
 </g>
</svg>