<svg t="1703335030482" class="icon" viewBox="0 0 1024 1024" version="1.1" xmlns="http://www.w3.org/2000/svg" p-id="15088" width="20" height="20" xmlns:xlink="http://www.w3.org/1999/xlink"><path d="M782 912H242c-71.68 0-130-58.32-130-130V242c0-71.68 58.32-130 130-130h240c16.57 0 30 13.43 30 30s-13.43 30-30 30H242c-38.59 0-70 31.41-70 70v540c0 38.59 31.41 70 70 70h540c38.59 0 70-31.41 70-70V542c0-16.57 13.44-30 30-30s30 13.43 30 30v240c0 71.68-58.32 130-130 130z" p-id="15089" fill="#969696"></path><path d="M358.74 740.61c-16.57 0-30-13.44-30-30 0-140.55 43.82-251.83 130.22-330.75 162.37-148.32 415.05-127.32 425.75-126.32 16.48 1.49 28.63 16.06 27.15 32.55s-15.8 28.77-32.54 27.21c-2.36-0.22-237.5-19.44-380.13 111.08-73.3 67.08-110.46 163.38-110.46 286.23 0.01 16.57-13.42 30-29.99 30z" p-id="15090" fill="#969696"></path><path d="M740.57 454.84c-7.68 0-15.35-2.93-21.21-8.79-11.72-11.72-11.72-30.71 0-42.42l120.21-120.21-120.21-120.21c-11.72-11.71-11.72-30.71 0-42.42 11.72-11.72 30.7-11.72 42.42 0l141.43 141.43c5.62 5.62 8.79 13.25 8.79 21.21s-3.16 15.59-8.79 21.21L761.79 446.05c-5.86 5.86-13.54 8.79-21.22 8.79z" p-id="15091" fill="#969696"></path></svg>