<svg class="icon" width="20" height="20" p-id="2721" t="1703287766491" version="1.1" viewBox="0 0 1024 1024" xmlns="http://www.w3.org/2000/svg"><path d="m920.42 250.38-75.6 193.04-12.58 32.183c-3.4523 8.8941-13.517 13.283-22.411 9.7718l-32.183-12.58-193.1-75.658c-8.8941-3.5108-13.283-13.517-9.7718-22.411l12.58-32.183c3.4523-8.8941 13.517-13.283 22.411-9.7718l159.92 62.668c-46.226-113.75-156.88-194.44-287.19-194.44-171.74 0-311 139.26-311 311s139.2 311 311 311c135.34 0 250.15-86.6 292.92-207.31h72.498c-45.173 159.45-191.46 276.42-365.42 276.42-209.95 0-380.1-170.16-380.1-380.1s170.16-380.1 380.1-380.1c143.59 0 268.23 79.813 332.77 197.37l40.784-104.1c3.4523-8.8941 13.517-13.283 22.411-9.7718l32.183 12.58c8.8356 3.5108 13.224 13.517 9.7718 22.411z" fill="#969696" stroke-width=".91428" p-id="2722"/></svg>