<svg class="icon" width="20" height="20" p-id="31079" t="1703303193896" version="1.1" viewBox="0 0 1024 1024" xmlns="http://www.w3.org/2000/svg"><path d="m336.28 687.62c12.848 12.855 12.848 33.695 0 46.549l-177.72 177.79c-12.85 12.854-33.681 12.854-46.529 0-12.849-12.854-12.849-33.694 0-46.548l177.71-177.79c12.85-12.854 33.681-12.854 46.529 0zm575.68-362.88c13.542 13.548 12.701 35.76-1.8278 48.243l-211.25 181.5 0.60958 2.4997c25.064 105.06-3.8905 217.18-80.32 297.16l-2.5087 2.5966-2.4904 2.5225c-12.828 12.978-33.761 13.038-46.662 0.13165l-408.42-408.59c-12.85-12.854-12.85-33.694 0-46.548 82.478-82.513 201.27-112.71 310.88-83.314l2.7335 0.74971 178.41-207.82c12.353-14.391 34.238-15.36 47.818-2.2354zm-71.627 21.44-162.42-162.48-169.43 197.36a32.901 32.914 0 0 1-35.585 9.7061l-2.8386-0.99292c-80.662-27.782-169.79-13.625-237.68 37.719l-2.0106 1.5378 358.91 359.06 0.79876-1.035c50.244-65.82 65.414-151.92 40.947-231.07l-0.97789-3.1022a32.901 32.914 0 0 1 10.017-34.63l200.26-172.06z" fill="#969696" stroke-width=".9141" p-id="31080"/></svg>