<svg t="1652985139781" class="icon" viewBox="0 0 1024 1024" version="1.1" xmlns="http://www.w3.org/2000/svg" p-id="23928" width="20" height="20"><path d="M917.942857 102.034286H106.057143c-20.114286 0-36.571429 16.457143-36.571429 36.571428v626.651429c0 20.114286 16.457143 36.571429 36.571429 36.571428h811.885714c20.114286 0 36.571429-16.457143 36.571429-36.571428V138.605714a36.571429 36.571429 0 0 0-36.571429-36.571428z m-36.571428 626.468571H142.628571V175.177143h738.742858v553.325714zM230.4 848.822857h563.2v73.142857H230.4z" fill="#969696" p-id="23929"></path><path d="M409.234286 599.954286l101.485714-96.365715 96.365714 101.485715 53.028572-50.468572-96.365715-101.485714 101.485715-96.365714-50.468572-53.028572-101.485714 96.365715-96.365714-101.485715-53.028572 50.468572 96.365715 101.485714-101.485715 96.365714z" fill="#969696" p-id="23930"></path></svg>